<?xml version="1.0" encoding="UTF-8" standalone="no"?>
<!DOCTYPE svg PUBLIC "-//W3C//DTD SVG 1.1//EN"
 "http://www.w3.org/Graphics/SVG/1.1/DTD/svg11.dtd">
<!-- Generated by graphviz version 2.43.0 (0)
 -->
<!-- Title: %3 Pages: 1 -->
<svg width="952pt" height="274pt"
 viewBox="0.00 0.00 952.00 274.00" xmlns="http://www.w3.org/2000/svg" xmlns:xlink="http://www.w3.org/1999/xlink">
<g id="graph0" class="graph" transform="scale(1 1) rotate(0) translate(4 270)">
<title>%3</title>
<polygon fill="transparent" stroke="transparent" points="-4,4 -4,-270 948,-270 948,4 -4,4"/>
<g id="clust1" class="cluster">
<title>clusterComputer</title>
<path fill="#ffffff" stroke="black" d="M20,-80C20,-80 454,-80 454,-80 460,-80 466,-86 466,-92 466,-92 466,-246 466,-246 466,-252 460,-258 454,-258 454,-258 20,-258 20,-258 14,-258 8,-252 8,-246 8,-246 8,-92 8,-92 8,-86 14,-80 20,-80"/>
<text text-anchor="middle" x="237" y="-246" font-family="Times,serif" font-size="10.00">Local Host</text>
</g>
<g id="clust2" class="cluster">
<title>clusterBrowser</title>
<polygon fill="#f2f2f2" stroke="lightgrey" points="132,-88 132,-231 458,-231 458,-88 132,-88"/>
<text text-anchor="middle" x="295" y="-219" font-family="Times,serif" font-size="10.00">Web Browser</text>
</g>
<g id="clust3" class="cluster">
<title>clusterGCP</title>
<path fill="#ffffff" stroke="black" d="M486,-8C486,-8 924,-8 924,-8 930,-8 936,-14 936,-20 936,-20 936,-246 936,-246 936,-252 930,-258 924,-258 924,-258 486,-258 486,-258 480,-258 474,-252 474,-246 474,-246 474,-20 474,-20 474,-14 480,-8 486,-8"/>
<text text-anchor="middle" x="705" y="-246" font-family="Times,serif" font-size="10.00">GCP</text>
</g>
<g id="clust4" class="cluster">
<title>clusterGCF</title>
<polygon fill="#f2f2f2" stroke="lightgrey" points="692,-16 692,-231 928,-231 928,-16 692,-16"/>
<text text-anchor="middle" x="810" y="-219" font-family="Times,serif" font-size="10.00">Cloud Functions</text>
</g>
<g id="clust6" class="cluster">
<title>clusterFirebase</title>
<polygon fill="#f2f2f2" stroke="lightgrey" points="482,-88 482,-159 684,-159 684,-88 482,-88"/>
<text text-anchor="middle" x="583" y="-147" font-family="Times,serif" font-size="10.00">Cloud Firestore</text>
</g>
<!-- forester -->
<g id="node1" class="node">
<title>forester</title>
<g id="a_node1"><a xlink:href="https://github.com/k0swe/forester" xlink:title="forester">
<ellipse fill="#2b7489" stroke="black" cx="389" cy="-186" rx="48.19" ry="18"/>
<text text-anchor="middle" x="389" y="-182.3" font-family="Times,serif" font-size="14.00" fill="white">forester</text>
</a>
</g>
</g>
<!-- ngxkelagent -->
<g id="node2" class="node">
<title>ngxkelagent</title>
<g id="a_node2"><a xlink:href="https://github.com/k0swe/ngx-kel-agent" xlink:title="ngx&#45;kel&#45;agent">
<ellipse fill="#2b7489" stroke="black" cx="213" cy="-114" rx="73.39" ry="18"/>
<text text-anchor="middle" x="213" y="-110.3" font-family="Times,serif" font-size="14.00" fill="white">ngx&#45;kel&#45;agent</text>
</a>
</g>
</g>
<!-- forester&#45;&gt;ngxkelagent -->
<g id="edge2" class="edge">
<title>forester&#45;&gt;ngxkelagent</title>
<path fill="none" stroke="black" d="M354.75,-173.24C348.86,-171.38 342.78,-169.56 337,-168 318.57,-163.03 312.92,-165.58 295,-159 278.7,-153.02 261.64,-144.3 247.32,-136.21"/>
<polygon fill="black" stroke="black" points="248.76,-132.99 238.35,-131.01 245.25,-139.05 248.76,-132.99"/>
</g>
<!-- adifparserts -->
<g id="node3" class="node">
<title>adifparserts</title>
<g id="a_node3"><a xlink:href="https://github.com/k0swe/adif-parser-ts" xlink:title="adif&#45;parser&#45;ts">
<ellipse fill="#2b7489" stroke="black" cx="377" cy="-114" rx="72.59" ry="18"/>
<text text-anchor="middle" x="377" y="-110.3" font-family="Times,serif" font-size="14.00" fill="white">adif&#45;parser&#45;ts</text>
</a>
</g>
</g>
<!-- forester&#45;&gt;adifparserts -->
<g id="edge1" class="edge">
<title>forester&#45;&gt;adifparserts</title>
<path fill="none" stroke="black" d="M386.03,-167.7C384.71,-159.98 383.12,-150.71 381.65,-142.11"/>
<polygon fill="black" stroke="black" points="385.07,-141.37 379.93,-132.1 378.17,-142.55 385.07,-141.37"/>
</g>
<!-- func -->
<g id="node6" class="node">
<title>func</title>
<g id="a_node6"><a xlink:href="https://github.com/k0swe/forester-func" xlink:title="forester&#45;func">
<ellipse fill="#00add8" stroke="black" cx="771" cy="-186" rx="70.69" ry="18"/>
<text text-anchor="middle" x="771" y="-182.3" font-family="Times,serif" font-size="14.00">forester&#45;func</text>
</a>
</g>
</g>
<!-- forester&#45;&gt;func -->
<g id="edge10" class="edge">
<title>forester&#45;&gt;func</title>
<path fill="none" stroke="black" stroke-dasharray="5,2" d="M437.12,-186C524.72,-186 612.32,-186 699.92,-186"/>
</g>
<!-- adifjson -->
<g id="node10" class="node">
<title>adifjson</title>
<g id="a_node10"><a xlink:href="https://github.com/k0swe/adif-json-protobuf" xlink:title="adif&#45;json&#45;protobuf">
<ellipse fill="#f1e05a" stroke="black" cx="583" cy="-114" rx="92.88" ry="18"/>
<text text-anchor="middle" x="583" y="-110.3" font-family="Times,serif" font-size="14.00">adif&#45;json&#45;protobuf</text>
</a>
</g>
</g>
<!-- forester&#45;&gt;adifjson -->
<g id="edge9" class="edge">
<title>forester&#45;&gt;adifjson</title>
<path fill="none" stroke="black" stroke-dasharray="5,2" d="M422.82,-173.01C435.16,-168.62 449.21,-163.6 462,-159 488.5,-149.46 518.23,-138.65 541.58,-130.14"/>
</g>
<!-- agent -->
<g id="node4" class="node">
<title>agent</title>
<g id="a_node4"><a xlink:href="https://github.com/k0swe/kel-agent" xlink:title="kel&#45;agent">
<ellipse fill="#00add8" stroke="black" cx="70" cy="-186" rx="53.89" ry="18"/>
<text text-anchor="middle" x="70" y="-182.3" font-family="Times,serif" font-size="14.00">kel&#45;agent</text>
</a>
</g>
</g>
<!-- agent&#45;&gt;ngxkelagent -->
<g id="edge8" class="edge">
<title>agent&#45;&gt;ngxkelagent</title>
<path fill="none" stroke="black" stroke-dasharray="5,2" d="M105,-172.29C115.13,-168.33 126.12,-163.74 136,-159 153.49,-150.61 172.42,-139.82 187.13,-131.03"/>
</g>
<!-- wsjtxgo -->
<g id="node5" class="node">
<title>wsjtxgo</title>
<g id="a_node5"><a xlink:href="https://github.com/k0swe/wsjtx-go" xlink:title="wsjtx&#45;go">
<ellipse fill="#00add8" stroke="black" cx="70" cy="-114" rx="49.29" ry="18"/>
<text text-anchor="middle" x="70" y="-110.3" font-family="Times,serif" font-size="14.00">wsjtx&#45;go</text>
</a>
</g>
</g>
<!-- agent&#45;&gt;wsjtxgo -->
<g id="edge3" class="edge">
<title>agent&#45;&gt;wsjtxgo</title>
<path fill="none" stroke="black" d="M70,-167.7C70,-159.98 70,-150.71 70,-142.11"/>
<polygon fill="black" stroke="black" points="73.5,-142.1 70,-132.1 66.5,-142.1 73.5,-142.1"/>
</g>
<!-- qrzapi -->
<g id="node7" class="node">
<title>qrzapi</title>
<g id="a_node7"><a xlink:href="https://github.com/k0swe/qrz-api" xlink:title="qrz&#45;api">
<ellipse fill="#00add8" stroke="black" cx="743" cy="-114" rx="42.79" ry="18"/>
<text text-anchor="middle" x="743" y="-110.3" font-family="Times,serif" font-size="14.00">qrz&#45;api</text>
</a>
</g>
</g>
<!-- func&#45;&gt;qrzapi -->
<g id="edge4" class="edge">
<title>func&#45;&gt;qrzapi</title>
<path fill="none" stroke="black" d="M764.22,-168.05C760.99,-159.97 757.05,-150.12 753.44,-141.11"/>
<polygon fill="black" stroke="black" points="756.68,-139.77 749.72,-131.79 750.18,-142.37 756.68,-139.77"/>
</g>
<!-- qrzlogbook -->
<g id="node8" class="node">
<title>qrzlogbook</title>
<g id="a_node8"><a xlink:href="https://github.com/k0swe/qrz-logbook" xlink:title="qrz&#45;logbook">
<ellipse fill="#00add8" stroke="black" cx="785" cy="-42" rx="64.99" ry="18"/>
<text text-anchor="middle" x="785" y="-38.3" font-family="Times,serif" font-size="14.00">qrz&#45;logbook</text>
</a>
</g>
</g>
<!-- func&#45;&gt;qrzlogbook -->
<g id="edge5" class="edge">
<title>func&#45;&gt;qrzlogbook</title>
<path fill="none" stroke="black" d="M789.53,-168.35C791.76,-165.47 793.7,-162.32 795,-159 806.28,-130.14 800.47,-94.24 793.98,-70.09"/>
<polygon fill="black" stroke="black" points="797.26,-68.83 791.11,-60.2 790.54,-70.78 797.26,-68.83"/>
</g>
<!-- lotwapi -->
<g id="node9" class="node">
<title>lotwapi</title>
<g id="a_node9"><a xlink:href="https://github.com/k0swe/lotw-api" xlink:title="lotw&#45;api">
<ellipse fill="#00add8" stroke="black" cx="872" cy="-114" rx="48.19" ry="18"/>
<text text-anchor="middle" x="872" y="-110.3" font-family="Times,serif" font-size="14.00">lotw&#45;api</text>
</a>
</g>
</g>
<!-- func&#45;&gt;lotwapi -->
<g id="edge7" class="edge">
<title>func&#45;&gt;lotwapi</title>
<path fill="none" stroke="black" d="M795.41,-168.88C800.26,-165.64 805.31,-162.23 810,-159 820.7,-151.64 832.34,-143.43 842.62,-136.12"/>
<polygon fill="black" stroke="black" points="844.77,-138.88 850.87,-130.22 840.7,-133.18 844.77,-138.88"/>
</g>
<!-- func&#45;&gt;adifjson -->
<g id="edge11" class="edge">
<title>func&#45;&gt;adifjson</title>
<path fill="none" stroke="black" stroke-dasharray="5,2" d="M726.38,-171.86C713.88,-167.95 700.34,-163.51 688,-159 664.42,-150.39 638.4,-139.49 618.15,-130.7"/>
</g>
<!-- qrzapi&#45;&gt;qrzlogbook -->
</g>
</svg>
