<?xml version="1.0" encoding="UTF-8" standalone="no"?>
<!DOCTYPE svg PUBLIC "-//W3C//DTD SVG 1.1//EN"
 "http://www.w3.org/Graphics/SVG/1.1/DTD/svg11.dtd">
<!-- Generated by graphviz version 2.43.0 (0)
 -->
<!-- Title: %3 Pages: 1 -->
<svg width="808pt" height="274pt"
 viewBox="0.00 0.00 808.00 274.00" xmlns="http://www.w3.org/2000/svg" xmlns:xlink="http://www.w3.org/1999/xlink">
<g id="graph0" class="graph" transform="scale(1 1) rotate(0) translate(4 270)">
<title>%3</title>
<polygon fill="transparent" stroke="transparent" points="-4,4 -4,-270 804,-270 804,4 -4,4"/>
<g id="clust1" class="cluster">
<title>clusterComputer</title>
<path fill="#ffffff" stroke="black" d="M20,-8C20,-8 310,-8 310,-8 316,-8 322,-14 322,-20 322,-20 322,-246 322,-246 322,-252 316,-258 310,-258 310,-258 20,-258 20,-258 14,-258 8,-252 8,-246 8,-246 8,-20 8,-20 8,-14 14,-8 20,-8"/>
<text text-anchor="middle" x="165" y="-246" font-family="Times,serif" font-size="10.00">Local Host</text>
</g>
<g id="clust2" class="cluster">
<title>clusterBrowser</title>
<polygon fill="#f2f2f2" stroke="lightgrey" points="132,-16 132,-231 314,-231 314,-16 132,-16"/>
<text text-anchor="middle" x="223" y="-219" font-family="Times,serif" font-size="10.00">Web Browser</text>
</g>
<g id="clust4" class="cluster">
<title>clusterGCP</title>
<path fill="#ffffff" stroke="black" d="M342,-8C342,-8 780,-8 780,-8 786,-8 792,-14 792,-20 792,-20 792,-246 792,-246 792,-252 786,-258 780,-258 780,-258 342,-258 342,-258 336,-258 330,-252 330,-246 330,-246 330,-20 330,-20 330,-14 336,-8 342,-8"/>
<text text-anchor="middle" x="561" y="-246" font-family="Times,serif" font-size="10.00">GCP</text>
</g>
<g id="clust5" class="cluster">
<title>clusterGCF</title>
<polygon fill="#f2f2f2" stroke="lightgrey" points="548,-16 548,-231 784,-231 784,-16 548,-16"/>
<text text-anchor="middle" x="666" y="-219" font-family="Times,serif" font-size="10.00">Cloud Functions</text>
</g>
<g id="clust7" class="cluster">
<title>clusterFirebase</title>
<polygon fill="#f2f2f2" stroke="lightgrey" points="338,-88 338,-159 540,-159 540,-88 338,-88"/>
<text text-anchor="middle" x="439" y="-147" font-family="Times,serif" font-size="10.00">Cloud Firestore</text>
</g>
<!-- forester -->
<g id="node1" class="node">
<title>forester</title>
<g id="a_node1"><a xlink:href="https://github.com/k0swe/forester" xlink:title="forester">
<ellipse fill="#2b7489" stroke="black" cx="258" cy="-186" rx="48.19" ry="18"/>
<text text-anchor="middle" x="258" y="-182.3" font-family="Times,serif" font-size="14.00" fill="white">forester</text>
</a>
</g>
</g>
<!-- ngxkelagent -->
<g id="node2" class="node">
<title>ngxkelagent</title>
<g id="a_node2"><a xlink:href="https://github.com/k0swe/ngx-kel-agent" xlink:title="ngx&#45;kel&#45;agent">
<ellipse fill="#2b7489" stroke="black" cx="213" cy="-114" rx="73.39" ry="18"/>
<text text-anchor="middle" x="213" y="-110.3" font-family="Times,serif" font-size="14.00" fill="white">ngx&#45;kel&#45;agent</text>
</a>
</g>
</g>
<!-- forester&#45;&gt;ngxkelagent -->
<g id="edge2" class="edge">
<title>forester&#45;&gt;ngxkelagent</title>
<path fill="none" stroke="black" d="M247.34,-168.41C241.98,-160.08 235.37,-149.8 229.39,-140.49"/>
<polygon fill="black" stroke="black" points="232.25,-138.48 223.9,-131.96 226.36,-142.26 232.25,-138.48"/>
</g>
<!-- adifparserts -->
<g id="node3" class="node">
<title>adifparserts</title>
<g id="a_node3"><a xlink:href="https://github.com/k0swe/adif-parser-ts" xlink:title="adif&#45;parser&#45;ts">
<ellipse fill="#2b7489" stroke="black" cx="223" cy="-42" rx="72.59" ry="18"/>
<text text-anchor="middle" x="223" y="-38.3" font-family="Times,serif" font-size="14.00" fill="white">adif&#45;parser&#45;ts</text>
</a>
</g>
</g>
<!-- forester&#45;&gt;adifparserts -->
<g id="edge1" class="edge">
<title>forester&#45;&gt;adifparserts</title>
<path fill="none" stroke="black" d="M284.94,-170.89C288.99,-167.55 292.61,-163.6 295,-159 309.55,-131 310.3,-115.6 295,-88 289.25,-77.63 280.01,-69.33 270.03,-62.83"/>
<polygon fill="black" stroke="black" points="271.54,-59.65 261.15,-57.57 267.97,-65.68 271.54,-59.65"/>
</g>
<!-- func -->
<g id="node6" class="node">
<title>func</title>
<g id="a_node6"><a xlink:href="https://github.com/k0swe/forester-func" xlink:title="forester&#45;func">
<ellipse fill="#00add8" stroke="black" cx="627" cy="-186" rx="70.69" ry="18"/>
<text text-anchor="middle" x="627" y="-182.3" font-family="Times,serif" font-size="14.00">forester&#45;func</text>
</a>
</g>
</g>
<!-- forester&#45;&gt;func -->
<g id="edge11" class="edge">
<title>forester&#45;&gt;func</title>
<path fill="none" stroke="black" stroke-dasharray="5,2" d="M306.29,-186C389.49,-186 472.7,-186 555.9,-186"/>
</g>
<!-- adifjson -->
<g id="node10" class="node">
<title>adifjson</title>
<g id="a_node10"><a xlink:href="https://github.com/k0swe/adif-json-protobuf" xlink:title="adif&#45;json&#45;protobuf">
<ellipse fill="#f1e05a" stroke="black" cx="439" cy="-114" rx="92.88" ry="18"/>
<text text-anchor="middle" x="439" y="-110.3" font-family="Times,serif" font-size="14.00">adif&#45;json&#45;protobuf</text>
</a>
</g>
</g>
<!-- forester&#45;&gt;adifjson -->
<g id="edge10" class="edge">
<title>forester&#45;&gt;adifjson</title>
<path fill="none" stroke="black" stroke-dasharray="5,2" d="M290.36,-172.49C320.86,-160.69 366.65,-142.98 399.34,-130.34"/>
</g>
<!-- ngxkelagent&#45;&gt;adifparserts -->
<!-- agent -->
<g id="node4" class="node">
<title>agent</title>
<g id="a_node4"><a xlink:href="https://github.com/k0swe/kel-agent" xlink:title="kel&#45;agent">
<ellipse fill="#00add8" stroke="black" cx="70" cy="-186" rx="53.89" ry="18"/>
<text text-anchor="middle" x="70" y="-182.3" font-family="Times,serif" font-size="14.00">kel&#45;agent</text>
</a>
</g>
</g>
<!-- agent&#45;&gt;ngxkelagent -->
<g id="edge9" class="edge">
<title>agent&#45;&gt;ngxkelagent</title>
<path fill="none" stroke="black" stroke-dasharray="5,2" d="M105,-172.29C115.13,-168.33 126.12,-163.74 136,-159 153.49,-150.61 172.42,-139.82 187.13,-131.03"/>
</g>
<!-- wsjtxgo -->
<g id="node5" class="node">
<title>wsjtxgo</title>
<g id="a_node5"><a xlink:href="https://github.com/k0swe/wsjtx-go" xlink:title="wsjtx&#45;go">
<ellipse fill="#00add8" stroke="black" cx="70" cy="-114" rx="49.29" ry="18"/>
<text text-anchor="middle" x="70" y="-110.3" font-family="Times,serif" font-size="14.00">wsjtx&#45;go</text>
</a>
</g>
</g>
<!-- agent&#45;&gt;wsjtxgo -->
<g id="edge4" class="edge">
<title>agent&#45;&gt;wsjtxgo</title>
<path fill="none" stroke="black" d="M70,-167.7C70,-159.98 70,-150.71 70,-142.11"/>
<polygon fill="black" stroke="black" points="73.5,-142.1 70,-132.1 66.5,-142.1 73.5,-142.1"/>
</g>
<!-- qrzapi -->
<g id="node7" class="node">
<title>qrzapi</title>
<g id="a_node7"><a xlink:href="https://github.com/k0swe/qrz-api" xlink:title="qrz&#45;api">
<ellipse fill="#00add8" stroke="black" cx="599" cy="-114" rx="42.79" ry="18"/>
<text text-anchor="middle" x="599" y="-110.3" font-family="Times,serif" font-size="14.00">qrz&#45;api</text>
</a>
</g>
</g>
<!-- func&#45;&gt;qrzapi -->
<g id="edge5" class="edge">
<title>func&#45;&gt;qrzapi</title>
<path fill="none" stroke="black" d="M620.22,-168.05C616.99,-159.97 613.05,-150.12 609.44,-141.11"/>
<polygon fill="black" stroke="black" points="612.68,-139.77 605.72,-131.79 606.18,-142.37 612.68,-139.77"/>
</g>
<!-- qrzlogbook -->
<g id="node8" class="node">
<title>qrzlogbook</title>
<g id="a_node8"><a xlink:href="https://github.com/k0swe/qrz-logbook" xlink:title="qrz&#45;logbook">
<ellipse fill="#00add8" stroke="black" cx="641" cy="-42" rx="64.99" ry="18"/>
<text text-anchor="middle" x="641" y="-38.3" font-family="Times,serif" font-size="14.00">qrz&#45;logbook</text>
</a>
</g>
</g>
<!-- func&#45;&gt;qrzlogbook -->
<g id="edge6" class="edge">
<title>func&#45;&gt;qrzlogbook</title>
<path fill="none" stroke="black" d="M645.53,-168.35C647.76,-165.47 649.7,-162.32 651,-159 662.28,-130.14 656.47,-94.24 649.98,-70.09"/>
<polygon fill="black" stroke="black" points="653.26,-68.83 647.11,-60.2 646.54,-70.78 653.26,-68.83"/>
</g>
<!-- lotwapi -->
<g id="node9" class="node">
<title>lotwapi</title>
<g id="a_node9"><a xlink:href="https://github.com/k0swe/lotw-api" xlink:title="lotw&#45;api">
<ellipse fill="#00add8" stroke="black" cx="728" cy="-114" rx="48.19" ry="18"/>
<text text-anchor="middle" x="728" y="-110.3" font-family="Times,serif" font-size="14.00">lotw&#45;api</text>
</a>
</g>
</g>
<!-- func&#45;&gt;lotwapi -->
<g id="edge7" class="edge">
<title>func&#45;&gt;lotwapi</title>
<path fill="none" stroke="black" d="M651.41,-168.88C656.26,-165.64 661.31,-162.23 666,-159 676.7,-151.64 688.34,-143.43 698.62,-136.12"/>
<polygon fill="black" stroke="black" points="700.77,-138.88 706.87,-130.22 696.7,-133.18 700.77,-138.88"/>
</g>
<!-- func&#45;&gt;adifjson -->
<g id="edge12" class="edge">
<title>func&#45;&gt;adifjson</title>
<path fill="none" stroke="black" stroke-dasharray="5,2" d="M582.38,-171.86C569.88,-167.95 556.34,-163.51 544,-159 520.42,-150.39 494.4,-139.49 474.15,-130.7"/>
</g>
<!-- qrzapi&#45;&gt;qrzlogbook -->
</g>
</svg>
