<?xml version="1.0" encoding="UTF-8" standalone="no"?>
<!DOCTYPE svg PUBLIC "-//W3C//DTD SVG 1.1//EN"
 "http://www.w3.org/Graphics/SVG/1.1/DTD/svg11.dtd">
<!-- Generated by graphviz version 2.43.0 (0)
 -->
<!-- Title: %3 Pages: 1 -->
<svg width="812pt" height="202pt"
 viewBox="0.00 0.00 812.00 202.00" xmlns="http://www.w3.org/2000/svg" xmlns:xlink="http://www.w3.org/1999/xlink">
<g id="graph0" class="graph" transform="scale(1 1) rotate(0) translate(4 198)">
<title>%3</title>
<polygon fill="transparent" stroke="transparent" points="-4,4 -4,-198 808,-198 808,4 -4,4"/>
<g id="clust1" class="cluster">
<title>clusterComputer</title>
<path fill="#ffffff" stroke="black" d="M20,-8C20,-8 290,-8 290,-8 296,-8 302,-14 302,-20 302,-20 302,-174 302,-174 302,-180 296,-186 290,-186 290,-186 20,-186 20,-186 14,-186 8,-180 8,-174 8,-174 8,-20 8,-20 8,-14 14,-8 20,-8"/>
<text text-anchor="middle" x="155" y="-174" font-family="Times,serif" font-size="10.00">Local Host</text>
</g>
<g id="clust2" class="cluster">
<title>clusterBrowser</title>
<path fill="#ffffff" stroke="lightgrey" d="M144,-16C144,-16 282,-16 282,-16 288,-16 294,-22 294,-28 294,-28 294,-147 294,-147 294,-153 288,-159 282,-159 282,-159 144,-159 144,-159 138,-159 132,-153 132,-147 132,-147 132,-28 132,-28 132,-22 138,-16 144,-16"/>
<text text-anchor="middle" x="213" y="-147" font-family="Times,serif" font-size="10.00">Web Browser</text>
</g>
<g id="clust3" class="cluster">
<title>clusterGCP</title>
<path fill="#ffffff" stroke="black" d="M322,-8C322,-8 784,-8 784,-8 790,-8 796,-14 796,-20 796,-20 796,-174 796,-174 796,-180 790,-186 784,-186 784,-186 322,-186 322,-186 316,-186 310,-180 310,-174 310,-174 310,-20 310,-20 310,-14 316,-8 322,-8"/>
<text text-anchor="middle" x="553" y="-174" font-family="Times,serif" font-size="10.00">GCP</text>
</g>
<g id="clust4" class="cluster">
<title>clusterGCF</title>
<path fill="#ffffff" stroke="lightgrey" d="M540,-16C540,-16 776,-16 776,-16 782,-16 788,-22 788,-28 788,-28 788,-147 788,-147 788,-153 782,-159 776,-159 776,-159 540,-159 540,-159 534,-159 528,-153 528,-147 528,-147 528,-28 528,-28 528,-22 534,-16 540,-16"/>
<text text-anchor="middle" x="658" y="-147" font-family="Times,serif" font-size="10.00">Cloud Functions</text>
</g>
<g id="clust5" class="cluster">
<title>clusterFirebase</title>
<path fill="#ffffff" stroke="lightgrey" d="M330,-16C330,-16 508,-16 508,-16 514,-16 520,-22 520,-28 520,-28 520,-75 520,-75 520,-81 514,-87 508,-87 508,-87 330,-87 330,-87 324,-87 318,-81 318,-75 318,-75 318,-28 318,-28 318,-22 324,-16 330,-16"/>
<text text-anchor="middle" x="419" y="-75" font-family="Times,serif" font-size="10.00">Cloud Firestore</text>
</g>
<!-- kellog -->
<g id="node1" class="node">
<title>kellog</title>
<g id="a_node1"><a xlink:href="https://github.com/k0swe/kellog" xlink:title="kellog">
<ellipse fill="none" stroke="black" cx="230" cy="-114" rx="38.19" ry="18"/>
<text text-anchor="middle" x="230" y="-110.3" font-family="Times,serif" font-size="14.00">kellog</text>
</a>
</g>
</g>
<!-- adifparserts -->
<g id="node2" class="node">
<title>adifparserts</title>
<g id="a_node2"><a xlink:href="https://github.com/k0swe/adif-parser-ts" xlink:title="adif&#45;parser&#45;ts">
<ellipse fill="none" stroke="black" cx="213" cy="-42" rx="72.59" ry="18"/>
<text text-anchor="middle" x="213" y="-38.3" font-family="Times,serif" font-size="14.00">adif&#45;parser&#45;ts</text>
</a>
</g>
</g>
<!-- kellog&#45;&gt;adifparserts -->
<g id="edge1" class="edge">
<title>kellog&#45;&gt;adifparserts</title>
<path fill="none" stroke="black" d="M225.88,-96.05C223.99,-88.26 221.7,-78.82 219.58,-70.08"/>
<polygon fill="black" stroke="black" points="222.96,-69.17 217.2,-60.28 216.15,-70.82 222.96,-69.17"/>
</g>
<!-- func -->
<g id="node5" class="node">
<title>func</title>
<g id="a_node5"><a xlink:href="https://github.com/k0swe/kellog-func" xlink:title="kellog&#45;func">
<ellipse fill="none" stroke="black" cx="599" cy="-114" rx="61.99" ry="18"/>
<text text-anchor="middle" x="599" y="-110.3" font-family="Times,serif" font-size="14.00">kellog&#45;func</text>
</a>
</g>
</g>
<!-- kellog&#45;&gt;func -->
<g id="edge7" class="edge">
<title>kellog&#45;&gt;func</title>
<path fill="none" stroke="black" stroke-dasharray="5,2" d="M268.56,-114C358.05,-114 447.55,-114 537.04,-114"/>
</g>
<!-- adifjson -->
<g id="node8" class="node">
<title>adifjson</title>
<g id="a_node8"><a xlink:href="https://github.com/k0swe/adif-json-protobuf" xlink:title="adif&#45;json&#45;protobuf">
<ellipse fill="none" stroke="black" cx="419" cy="-42" rx="92.88" ry="18"/>
<text text-anchor="middle" x="419" y="-38.3" font-family="Times,serif" font-size="14.00">adif&#45;json&#45;protobuf</text>
</a>
</g>
</g>
<!-- kellog&#45;&gt;adifjson -->
<g id="edge6" class="edge">
<title>kellog&#45;&gt;adifjson</title>
<path fill="none" stroke="black" stroke-dasharray="5,2" d="M259.12,-102.22C290.91,-90.44 342.06,-71.5 377.92,-58.21"/>
</g>
<!-- agent -->
<g id="node3" class="node">
<title>agent</title>
<g id="a_node3"><a xlink:href="https://github.com/k0swe/kel-agent" xlink:title="kel&#45;agent">
<ellipse fill="none" stroke="black" cx="70" cy="-114" rx="53.89" ry="18"/>
<text text-anchor="middle" x="70" y="-110.3" font-family="Times,serif" font-size="14.00">kel&#45;agent</text>
</a>
</g>
</g>
<!-- agent&#45;&gt;kellog -->
<g id="edge5" class="edge">
<title>agent&#45;&gt;kellog</title>
<path fill="none" stroke="black" stroke-dasharray="5,2" d="M124.06,-114C146.55,-114 169.03,-114 191.51,-114"/>
</g>
<!-- wsjtxgo -->
<g id="node4" class="node">
<title>wsjtxgo</title>
<g id="a_node4"><a xlink:href="https://github.com/k0swe/wsjtx-go" xlink:title="wsjtx&#45;go">
<ellipse fill="none" stroke="black" cx="70" cy="-42" rx="49.29" ry="18"/>
<text text-anchor="middle" x="70" y="-38.3" font-family="Times,serif" font-size="14.00">wsjtx&#45;go</text>
</a>
</g>
</g>
<!-- agent&#45;&gt;wsjtxgo -->
<g id="edge2" class="edge">
<title>agent&#45;&gt;wsjtxgo</title>
<path fill="none" stroke="black" d="M70,-95.7C70,-87.98 70,-78.71 70,-70.11"/>
<polygon fill="black" stroke="black" points="73.5,-70.1 70,-60.1 66.5,-70.1 73.5,-70.1"/>
</g>
<!-- qrzlogbook -->
<g id="node6" class="node">
<title>qrzlogbook</title>
<g id="a_node6"><a xlink:href="https://github.com/k0swe/qrz-logbook" xlink:title="qrz&#45;logbook">
<ellipse fill="none" stroke="black" cx="601" cy="-42" rx="64.99" ry="18"/>
<text text-anchor="middle" x="601" y="-38.3" font-family="Times,serif" font-size="14.00">qrz&#45;logbook</text>
</a>
</g>
</g>
<!-- func&#45;&gt;qrzlogbook -->
<g id="edge3" class="edge">
<title>func&#45;&gt;qrzlogbook</title>
<path fill="none" stroke="black" d="M599.49,-95.7C599.71,-87.98 599.98,-78.71 600.23,-70.11"/>
<polygon fill="black" stroke="black" points="603.72,-70.2 600.51,-60.1 596.73,-70 603.72,-70.2"/>
</g>
<!-- lotwapi -->
<g id="node7" class="node">
<title>lotwapi</title>
<g id="a_node7"><a xlink:href="https://github.com/k0swe/lotw-api" xlink:title="lotw&#45;api">
<ellipse fill="none" stroke="black" cx="732" cy="-42" rx="48.19" ry="18"/>
<text text-anchor="middle" x="732" y="-38.3" font-family="Times,serif" font-size="14.00">lotw&#45;api</text>
</a>
</g>
</g>
<!-- func&#45;&gt;lotwapi -->
<g id="edge4" class="edge">
<title>func&#45;&gt;lotwapi</title>
<path fill="none" stroke="black" d="M642.25,-100.94C653.23,-97.14 664.81,-92.48 675,-87 686.07,-81.05 697.24,-72.98 706.72,-65.38"/>
<polygon fill="black" stroke="black" points="709.09,-67.96 714.57,-58.89 704.63,-62.56 709.09,-67.96"/>
</g>
<!-- func&#45;&gt;adifjson -->
<g id="edge8" class="edge">
<title>func&#45;&gt;adifjson</title>
<path fill="none" stroke="black" stroke-dasharray="5,2" d="M559.9,-99.97C548.29,-95.96 535.58,-91.43 524,-87 500.74,-78.1 474.94,-67.31 454.74,-58.63"/>
</g>
</g>
</svg>
