<?xml version="1.0" encoding="UTF-8" standalone="no"?>
<!DOCTYPE svg PUBLIC "-//W3C//DTD SVG 1.1//EN"
 "http://www.w3.org/Graphics/SVG/1.1/DTD/svg11.dtd">
<!-- Generated by graphviz version 2.43.0 (0)
 -->
<!-- Title: %3 Pages: 1 -->
<svg width="788pt" height="274pt"
 viewBox="0.00 0.00 788.00 274.00" xmlns="http://www.w3.org/2000/svg" xmlns:xlink="http://www.w3.org/1999/xlink">
<g id="graph0" class="graph" transform="scale(1 1) rotate(0) translate(4 270)">
<title>%3</title>
<polygon fill="transparent" stroke="transparent" points="-4,4 -4,-270 784,-270 784,4 -4,4"/>
<g id="clust1" class="cluster">
<title>clusterComputer</title>
<path fill="#ffffff" stroke="black" d="M20,-80C20,-80 290,-80 290,-80 296,-80 302,-86 302,-92 302,-92 302,-246 302,-246 302,-252 296,-258 290,-258 290,-258 20,-258 20,-258 14,-258 8,-252 8,-246 8,-246 8,-92 8,-92 8,-86 14,-80 20,-80"/>
<text text-anchor="middle" x="155" y="-246" font-family="Times,serif" font-size="10.00">Local Host</text>
</g>
<g id="clust2" class="cluster">
<title>clusterBrowser</title>
<polygon fill="#f2f2f2" stroke="lightgrey" points="132,-88 132,-231 294,-231 294,-88 132,-88"/>
<text text-anchor="middle" x="213" y="-219" font-family="Times,serif" font-size="10.00">Web Browser</text>
</g>
<g id="clust3" class="cluster">
<title>clusterGCP</title>
<path fill="#ffffff" stroke="black" d="M322,-8C322,-8 760,-8 760,-8 766,-8 772,-14 772,-20 772,-20 772,-246 772,-246 772,-252 766,-258 760,-258 760,-258 322,-258 322,-258 316,-258 310,-252 310,-246 310,-246 310,-20 310,-20 310,-14 316,-8 322,-8"/>
<text text-anchor="middle" x="541" y="-246" font-family="Times,serif" font-size="10.00">GCP</text>
</g>
<g id="clust4" class="cluster">
<title>clusterGCF</title>
<polygon fill="#f2f2f2" stroke="lightgrey" points="528,-16 528,-231 764,-231 764,-16 528,-16"/>
<text text-anchor="middle" x="646" y="-219" font-family="Times,serif" font-size="10.00">Cloud Functions</text>
</g>
<g id="clust6" class="cluster">
<title>clusterFirebase</title>
<polygon fill="#f2f2f2" stroke="lightgrey" points="318,-88 318,-159 520,-159 520,-88 318,-88"/>
<text text-anchor="middle" x="419" y="-147" font-family="Times,serif" font-size="10.00">Cloud Firestore</text>
</g>
<!-- forester -->
<g id="node1" class="node">
<title>forester</title>
<g id="a_node1"><a xlink:href="https://github.com/k0swe/forester" xlink:title="forester">
<ellipse fill="#2b7489" stroke="black" cx="225" cy="-186" rx="48.19" ry="18"/>
<text text-anchor="middle" x="225" y="-182.3" font-family="Times,serif" font-size="14.00" fill="white">forester</text>
</a>
</g>
</g>
<!-- adifparserts -->
<g id="node2" class="node">
<title>adifparserts</title>
<g id="a_node2"><a xlink:href="https://github.com/k0swe/adif-parser-ts" xlink:title="adif&#45;parser&#45;ts">
<ellipse fill="#2b7489" stroke="black" cx="213" cy="-114" rx="72.59" ry="18"/>
<text text-anchor="middle" x="213" y="-110.3" font-family="Times,serif" font-size="14.00" fill="white">adif&#45;parser&#45;ts</text>
</a>
</g>
</g>
<!-- forester&#45;&gt;adifparserts -->
<g id="edge1" class="edge">
<title>forester&#45;&gt;adifparserts</title>
<path fill="none" stroke="black" d="M222.03,-167.7C220.71,-159.98 219.12,-150.71 217.65,-142.11"/>
<polygon fill="black" stroke="black" points="221.07,-141.37 215.93,-132.1 214.17,-142.55 221.07,-141.37"/>
</g>
<!-- func -->
<g id="node5" class="node">
<title>func</title>
<g id="a_node5"><a xlink:href="https://github.com/k0swe/forester-func" xlink:title="forester&#45;func">
<ellipse fill="#00add8" stroke="black" cx="607" cy="-186" rx="70.69" ry="18"/>
<text text-anchor="middle" x="607" y="-182.3" font-family="Times,serif" font-size="14.00">forester&#45;func</text>
</a>
</g>
</g>
<!-- forester&#45;&gt;func -->
<g id="edge9" class="edge">
<title>forester&#45;&gt;func</title>
<path fill="none" stroke="black" stroke-dasharray="5,2" d="M273.12,-186C360.72,-186 448.32,-186 535.92,-186"/>
</g>
<!-- adifjson -->
<g id="node9" class="node">
<title>adifjson</title>
<g id="a_node9"><a xlink:href="https://github.com/k0swe/adif-json-protobuf" xlink:title="adif&#45;json&#45;protobuf">
<ellipse fill="#f1e05a" stroke="black" cx="419" cy="-114" rx="92.88" ry="18"/>
<text text-anchor="middle" x="419" y="-110.3" font-family="Times,serif" font-size="14.00">adif&#45;json&#45;protobuf</text>
</a>
</g>
</g>
<!-- forester&#45;&gt;adifjson -->
<g id="edge8" class="edge">
<title>forester&#45;&gt;adifjson</title>
<path fill="none" stroke="black" stroke-dasharray="5,2" d="M258.82,-173.01C271.16,-168.62 285.21,-163.6 298,-159 324.5,-149.46 354.23,-138.65 377.58,-130.14"/>
</g>
<!-- agent -->
<g id="node3" class="node">
<title>agent</title>
<g id="a_node3"><a xlink:href="https://github.com/k0swe/kel-agent" xlink:title="kel&#45;agent">
<ellipse fill="#00add8" stroke="black" cx="70" cy="-186" rx="53.89" ry="18"/>
<text text-anchor="middle" x="70" y="-182.3" font-family="Times,serif" font-size="14.00">kel&#45;agent</text>
</a>
</g>
</g>
<!-- agent&#45;&gt;forester -->
<g id="edge7" class="edge">
<title>agent&#45;&gt;forester</title>
<path fill="none" stroke="black" stroke-dasharray="5,2" d="M124.19,-186C141.65,-186 159.11,-186 176.56,-186"/>
</g>
<!-- wsjtxgo -->
<g id="node4" class="node">
<title>wsjtxgo</title>
<g id="a_node4"><a xlink:href="https://github.com/k0swe/wsjtx-go" xlink:title="wsjtx&#45;go">
<ellipse fill="#00add8" stroke="black" cx="70" cy="-114" rx="49.29" ry="18"/>
<text text-anchor="middle" x="70" y="-110.3" font-family="Times,serif" font-size="14.00">wsjtx&#45;go</text>
</a>
</g>
</g>
<!-- agent&#45;&gt;wsjtxgo -->
<g id="edge2" class="edge">
<title>agent&#45;&gt;wsjtxgo</title>
<path fill="none" stroke="black" d="M70,-167.7C70,-159.98 70,-150.71 70,-142.11"/>
<polygon fill="black" stroke="black" points="73.5,-142.1 70,-132.1 66.5,-142.1 73.5,-142.1"/>
</g>
<!-- qrzapi -->
<g id="node6" class="node">
<title>qrzapi</title>
<g id="a_node6"><a xlink:href="https://github.com/k0swe/qrz-api" xlink:title="qrz&#45;api">
<ellipse fill="#00add8" stroke="black" cx="579" cy="-114" rx="42.79" ry="18"/>
<text text-anchor="middle" x="579" y="-110.3" font-family="Times,serif" font-size="14.00">qrz&#45;api</text>
</a>
</g>
</g>
<!-- func&#45;&gt;qrzapi -->
<g id="edge3" class="edge">
<title>func&#45;&gt;qrzapi</title>
<path fill="none" stroke="black" d="M600.22,-168.05C596.99,-159.97 593.05,-150.12 589.44,-141.11"/>
<polygon fill="black" stroke="black" points="592.68,-139.77 585.72,-131.79 586.18,-142.37 592.68,-139.77"/>
</g>
<!-- qrzlogbook -->
<g id="node7" class="node">
<title>qrzlogbook</title>
<g id="a_node7"><a xlink:href="https://github.com/k0swe/qrz-logbook" xlink:title="qrz&#45;logbook">
<ellipse fill="#00add8" stroke="black" cx="621" cy="-42" rx="64.99" ry="18"/>
<text text-anchor="middle" x="621" y="-38.3" font-family="Times,serif" font-size="14.00">qrz&#45;logbook</text>
</a>
</g>
</g>
<!-- func&#45;&gt;qrzlogbook -->
<g id="edge4" class="edge">
<title>func&#45;&gt;qrzlogbook</title>
<path fill="none" stroke="black" d="M625.53,-168.35C627.76,-165.47 629.7,-162.32 631,-159 642.28,-130.14 636.47,-94.24 629.98,-70.09"/>
<polygon fill="black" stroke="black" points="633.26,-68.83 627.11,-60.2 626.54,-70.78 633.26,-68.83"/>
</g>
<!-- lotwapi -->
<g id="node8" class="node">
<title>lotwapi</title>
<g id="a_node8"><a xlink:href="https://github.com/k0swe/lotw-api" xlink:title="lotw&#45;api">
<ellipse fill="#00add8" stroke="black" cx="708" cy="-114" rx="48.19" ry="18"/>
<text text-anchor="middle" x="708" y="-110.3" font-family="Times,serif" font-size="14.00">lotw&#45;api</text>
</a>
</g>
</g>
<!-- func&#45;&gt;lotwapi -->
<g id="edge6" class="edge">
<title>func&#45;&gt;lotwapi</title>
<path fill="none" stroke="black" d="M631.41,-168.88C636.26,-165.64 641.31,-162.23 646,-159 656.7,-151.64 668.34,-143.43 678.62,-136.12"/>
<polygon fill="black" stroke="black" points="680.77,-138.88 686.87,-130.22 676.7,-133.18 680.77,-138.88"/>
</g>
<!-- func&#45;&gt;adifjson -->
<g id="edge10" class="edge">
<title>func&#45;&gt;adifjson</title>
<path fill="none" stroke="black" stroke-dasharray="5,2" d="M562.38,-171.86C549.88,-167.95 536.34,-163.51 524,-159 500.42,-150.39 474.4,-139.49 454.15,-130.7"/>
</g>
<!-- qrzapi&#45;&gt;qrzlogbook -->
</g>
</svg>
