<?xml version="1.0" encoding="UTF-8" standalone="no"?>
<!DOCTYPE svg PUBLIC "-//W3C//DTD SVG 1.1//EN"
 "http://www.w3.org/Graphics/SVG/1.1/DTD/svg11.dtd">
<!-- Generated by graphviz version 2.43.0 (0)
 -->
<!-- Title: %3 Pages: 1 -->
<svg width="557pt" height="266pt"
 viewBox="0.00 0.00 557.00 266.00" xmlns="http://www.w3.org/2000/svg" xmlns:xlink="http://www.w3.org/1999/xlink">
<g id="graph0" class="graph" transform="scale(1 1) rotate(0) translate(4 262)">
<title>%3</title>
<polygon fill="white" stroke="transparent" points="-4,4 -4,-262 553,-262 553,4 -4,4"/>
<g id="clust1" class="cluster">
<title>clusterGCP</title>
<path fill="none" stroke="black" d="M168,-8C168,-8 529,-8 529,-8 535,-8 541,-14 541,-20 541,-20 541,-113 541,-113 541,-119 535,-125 529,-125 529,-125 168,-125 168,-125 162,-125 156,-119 156,-113 156,-113 156,-20 156,-20 156,-14 162,-8 168,-8"/>
<text text-anchor="middle" x="175.5" y="-113" font-family="Times,serif" font-size="10.00">GCP</text>
</g>
<g id="clust2" class="cluster">
<title>clusterGCF</title>
<path fill="none" stroke="lightgrey" d="M355,-16C355,-16 521,-16 521,-16 527,-16 533,-22 533,-28 533,-28 533,-86 533,-86 533,-92 527,-98 521,-98 521,-98 355,-98 355,-98 349,-98 343,-92 343,-86 343,-86 343,-28 343,-28 343,-22 349,-16 355,-16"/>
<text text-anchor="middle" x="393" y="-86" font-family="Times,serif" font-size="10.00">Cloud Functions</text>
</g>
<g id="clust3" class="cluster">
<title>clusterFirebase</title>
<path fill="none" stroke="lightgrey" d="M176,-25C176,-25 311,-25 311,-25 317,-25 323,-31 323,-37 323,-37 323,-86 323,-86 323,-92 317,-98 311,-98 311,-98 176,-98 176,-98 170,-98 164,-92 164,-86 164,-86 164,-37 164,-37 164,-31 170,-25 176,-25"/>
<text text-anchor="middle" x="211.5" y="-86" font-family="Times,serif" font-size="10.00">Cloud Firestore</text>
</g>
<g id="clust4" class="cluster">
<title>clusterComputer</title>
<path fill="none" stroke="black" d="M20,-133C20,-133 281,-133 281,-133 287,-133 293,-139 293,-145 293,-145 293,-238 293,-238 293,-244 287,-250 281,-250 281,-250 20,-250 20,-250 14,-250 8,-244 8,-238 8,-238 8,-145 8,-145 8,-139 14,-133 20,-133"/>
<text text-anchor="middle" x="43.5" y="-238" font-family="Times,serif" font-size="10.00">Local Host</text>
</g>
<g id="clust5" class="cluster">
<title>clusterBrowser</title>
<path fill="none" stroke="lightgrey" d="M28,-141C28,-141 132,-141 132,-141 138,-141 144,-147 144,-153 144,-153 144,-211 144,-211 144,-217 138,-223 132,-223 132,-223 28,-223 28,-223 22,-223 16,-217 16,-211 16,-211 16,-153 16,-153 16,-147 22,-141 28,-141"/>
<text text-anchor="middle" x="58" y="-211" font-family="Times,serif" font-size="10.00">Web Browser</text>
</g>
<!-- func -->
<g id="node1" class="node">
<title>func</title>
<g id="a_node1"><a xlink:href="https://github.com/k0swe/kellog-func" xlink:title="&lt;kellogfunc&gt;kellog&#45;func|{qrz&#45;logbook|lotw&#45;api}">
<polygon fill="none" stroke="black" points="351,-24 351,-70 525,-70 525,-24 351,-24"/>
<text text-anchor="middle" x="438" y="-54.8" font-family="Times,serif" font-size="14.00">kellog&#45;func</text>
<polyline fill="none" stroke="black" points="351,-47 525,-47 "/>
<text text-anchor="middle" x="401" y="-31.8" font-family="Times,serif" font-size="14.00">qrz&#45;logbook</text>
<polyline fill="none" stroke="black" points="451,-24 451,-47 "/>
<text text-anchor="middle" x="488" y="-31.8" font-family="Times,serif" font-size="14.00">lotw&#45;api</text>
</a>
</g>
</g>
<!-- firestore -->
<g id="node2" class="node">
<title>firestore</title>
<g id="a_node2"><a xlink:href="https://github.com/k0swe/adif-json-protobuf" xlink:title="&lt;adifjs&gt;adif&#45;json&#45;protobuf">
<polygon fill="none" stroke="black" points="172,-34 172,-70 315,-70 315,-34 172,-34"/>
<text text-anchor="middle" x="243.5" y="-48.3" font-family="Times,serif" font-size="14.00">adif&#45;json&#45;protobuf</text>
</a>
</g>
</g>
<!-- firestore&#45;&gt;func -->
<g id="edge4" class="edge">
<title>firestore:adifjs&#45;&gt;func:kellogfunc</title>
<path fill="none" stroke="black" stroke-width="2" d="M315.07,-58C326.73,-58.6 338.7,-59 350,-59"/>
</g>
<!-- webapp -->
<g id="node3" class="node">
<title>webapp</title>
<g id="a_node3"><a xlink:href="https://github.com/k0swe/kellog" xlink:title="&lt;kellog&gt;KelLog|&lt;adifparserts&gt;adif&#45;parser&#45;ts">
<polygon fill="none" stroke="black" points="24,-149 24,-195 136,-195 136,-149 24,-149"/>
<text text-anchor="middle" x="80" y="-179.8" font-family="Times,serif" font-size="14.00">KelLog</text>
<polyline fill="none" stroke="black" points="24,-172 136,-172 "/>
<text text-anchor="middle" x="80" y="-156.8" font-family="Times,serif" font-size="14.00">adif&#45;parser&#45;ts</text>
</a>
</g>
</g>
<!-- webapp&#45;&gt;func -->
<g id="edge2" class="edge">
<title>webapp:kellog&#45;&gt;func:kellogfunc</title>
<path fill="none" stroke="black" stroke-width="2" d="M137,-184C161.61,-184 137.17,-147.83 156,-132 213.72,-83.47 260.5,-144.2 323,-102 341.7,-89.37 327.43,-59 350,-59"/>
</g>
<!-- webapp&#45;&gt;firestore -->
<g id="edge3" class="edge">
<title>webapp:kellog&#45;&gt;firestore:adifjs</title>
<path fill="none" stroke="black" stroke-width="2" d="M137,-184C155.27,-184 149.97,-121.25 156,-104 161.47,-88.36 159.14,-80.73 171.7,-70.25"/>
</g>
<!-- agent -->
<g id="node4" class="node">
<title>agent</title>
<g id="a_node4"><a xlink:href="https://github.com/k0swe/kel-agent" xlink:title="&lt;kelagent&gt;kel&#45;agent|{wsjtx&#45;go}">
<polygon fill="none" stroke="black" points="202,-149 202,-195 285,-195 285,-149 202,-149"/>
<text text-anchor="middle" x="243.5" y="-179.8" font-family="Times,serif" font-size="14.00">kel&#45;agent</text>
<polyline fill="none" stroke="black" points="202,-172 285,-172 "/>
<text text-anchor="middle" x="243.5" y="-156.8" font-family="Times,serif" font-size="14.00">wsjtx&#45;go</text>
</a>
</g>
</g>
<!-- webapp&#45;&gt;agent -->
<g id="edge1" class="edge">
<title>webapp:kellog&#45;&gt;agent:kelagent</title>
<path fill="none" stroke="black" stroke-width="2" d="M137,-184C165.22,-184 172.28,-184 200.5,-184"/>
</g>
</g>
</svg>
