<?xml version="1.0" encoding="UTF-8" standalone="no"?>
<!DOCTYPE svg PUBLIC "-//W3C//DTD SVG 1.1//EN"
 "http://www.w3.org/Graphics/SVG/1.1/DTD/svg11.dtd">
<!-- Generated by graphviz version 2.43.0 (0)
 -->
<!-- Title: %3 Pages: 1 -->
<svg width="812pt" height="202pt"
 viewBox="0.00 0.00 812.00 202.00" xmlns="http://www.w3.org/2000/svg" xmlns:xlink="http://www.w3.org/1999/xlink">
<g id="graph0" class="graph" transform="scale(1 1) rotate(0) translate(4 198)">
<title>%3</title>
<polygon fill="transparent" stroke="transparent" points="-4,4 -4,-198 808,-198 808,4 -4,4"/>
<g id="clust1" class="cluster">
<title>clusterComputer</title>
<path fill="#ffffff" stroke="black" d="M20,-8C20,-8 290,-8 290,-8 296,-8 302,-14 302,-20 302,-20 302,-174 302,-174 302,-180 296,-186 290,-186 290,-186 20,-186 20,-186 14,-186 8,-180 8,-174 8,-174 8,-20 8,-20 8,-14 14,-8 20,-8"/>
<text text-anchor="middle" x="155" y="-174" font-family="Times,serif" font-size="10.00">Local Host</text>
</g>
<g id="clust2" class="cluster">
<title>clusterBrowser</title>
<polygon fill="#f2f2f2" stroke="lightgrey" points="132,-16 132,-159 294,-159 294,-16 132,-16"/>
<text text-anchor="middle" x="213" y="-147" font-family="Times,serif" font-size="10.00">Web Browser</text>
</g>
<g id="clust3" class="cluster">
<title>clusterGCP</title>
<path fill="#ffffff" stroke="black" d="M322,-8C322,-8 784,-8 784,-8 790,-8 796,-14 796,-20 796,-20 796,-174 796,-174 796,-180 790,-186 784,-186 784,-186 322,-186 322,-186 316,-186 310,-180 310,-174 310,-174 310,-20 310,-20 310,-14 316,-8 322,-8"/>
<text text-anchor="middle" x="553" y="-174" font-family="Times,serif" font-size="10.00">GCP</text>
</g>
<g id="clust4" class="cluster">
<title>clusterGCF</title>
<polygon fill="#f2f2f2" stroke="lightgrey" points="528,-16 528,-159 788,-159 788,-16 528,-16"/>
<text text-anchor="middle" x="658" y="-147" font-family="Times,serif" font-size="10.00">Cloud Functions</text>
</g>
<g id="clust5" class="cluster">
<title>clusterFirebase</title>
<polygon fill="#f2f2f2" stroke="lightgrey" points="318,-16 318,-87 520,-87 520,-16 318,-16"/>
<text text-anchor="middle" x="419" y="-75" font-family="Times,serif" font-size="10.00">Cloud Firestore</text>
</g>
<!-- forester -->
<g id="node1" class="node">
<title>forester</title>
<g id="a_node1"><a xlink:href="https://github.com/k0swe/forester" xlink:title="forester">
<ellipse fill="#2b7489" stroke="black" cx="225" cy="-114" rx="48.19" ry="18"/>
<text text-anchor="middle" x="225" y="-110.3" font-family="Times,serif" font-size="14.00" fill="white">forester</text>
</a>
</g>
</g>
<!-- adifparserts -->
<g id="node2" class="node">
<title>adifparserts</title>
<g id="a_node2"><a xlink:href="https://github.com/k0swe/adif-parser-ts" xlink:title="adif&#45;parser&#45;ts">
<ellipse fill="#2b7489" stroke="black" cx="213" cy="-42" rx="73.39" ry="18"/>
<text text-anchor="middle" x="213" y="-38.3" font-family="Times,serif" font-size="14.00" fill="white">adif&#45;parser&#45;ts</text>
</a>
</g>
</g>
<!-- forester&#45;&gt;adifparserts -->
<g id="edge1" class="edge">
<title>forester&#45;&gt;adifparserts</title>
<path fill="none" stroke="black" d="M222.03,-95.7C220.71,-87.98 219.12,-78.71 217.65,-70.11"/>
<polygon fill="black" stroke="black" points="221.07,-69.37 215.93,-60.1 214.17,-70.55 221.07,-69.37"/>
</g>
<!-- func -->
<g id="node5" class="node">
<title>func</title>
<g id="a_node5"><a xlink:href="https://github.com/k0swe/forester-func" xlink:title="forester&#45;func">
<ellipse fill="#00add8" stroke="black" cx="607" cy="-114" rx="70.69" ry="18"/>
<text text-anchor="middle" x="607" y="-110.3" font-family="Times,serif" font-size="14.00">forester&#45;func</text>
</a>
</g>
</g>
<!-- forester&#45;&gt;func -->
<g id="edge7" class="edge">
<title>forester&#45;&gt;func</title>
<path fill="none" stroke="black" stroke-dasharray="5,2" d="M273.12,-114C360.72,-114 448.32,-114 535.92,-114"/>
</g>
<!-- adifjson -->
<g id="node8" class="node">
<title>adifjson</title>
<g id="a_node8"><a xlink:href="https://github.com/k0swe/adif-json-protobuf" xlink:title="adif&#45;json&#45;protobuf">
<ellipse fill="#f1e05a" stroke="black" cx="419" cy="-42" rx="92.88" ry="18"/>
<text text-anchor="middle" x="419" y="-38.3" font-family="Times,serif" font-size="14.00">adif&#45;json&#45;protobuf</text>
</a>
</g>
</g>
<!-- forester&#45;&gt;adifjson -->
<g id="edge6" class="edge">
<title>forester&#45;&gt;adifjson</title>
<path fill="none" stroke="black" stroke-dasharray="5,2" d="M258.82,-101.01C271.16,-96.62 285.21,-91.6 298,-87 324.5,-77.46 354.23,-66.65 377.58,-58.14"/>
</g>
<!-- agent -->
<g id="node3" class="node">
<title>agent</title>
<g id="a_node3"><a xlink:href="https://github.com/k0swe/kel-agent" xlink:title="kel&#45;agent">
<ellipse fill="#00add8" stroke="black" cx="70" cy="-114" rx="53.89" ry="18"/>
<text text-anchor="middle" x="70" y="-110.3" font-family="Times,serif" font-size="14.00">kel&#45;agent</text>
</a>
</g>
</g>
<!-- agent&#45;&gt;forester -->
<g id="edge5" class="edge">
<title>agent&#45;&gt;forester</title>
<path fill="none" stroke="black" stroke-dasharray="5,2" d="M124.19,-114C141.65,-114 159.11,-114 176.56,-114"/>
</g>
<!-- wsjtxgo -->
<g id="node4" class="node">
<title>wsjtxgo</title>
<g id="a_node4"><a xlink:href="https://github.com/k0swe/wsjtx-go" xlink:title="wsjtx&#45;go">
<ellipse fill="#00add8" stroke="black" cx="70" cy="-42" rx="49.29" ry="18"/>
<text text-anchor="middle" x="70" y="-38.3" font-family="Times,serif" font-size="14.00">wsjtx&#45;go</text>
</a>
</g>
</g>
<!-- agent&#45;&gt;wsjtxgo -->
<g id="edge2" class="edge">
<title>agent&#45;&gt;wsjtxgo</title>
<path fill="none" stroke="black" d="M70,-95.7C70,-87.98 70,-78.71 70,-70.11"/>
<polygon fill="black" stroke="black" points="73.5,-70.1 70,-60.1 66.5,-70.1 73.5,-70.1"/>
</g>
<!-- qrzlogbook -->
<g id="node6" class="node">
<title>qrzlogbook</title>
<g id="a_node6"><a xlink:href="https://github.com/k0swe/qrz-logbook" xlink:title="qrz&#45;logbook">
<ellipse fill="#00add8" stroke="black" cx="601" cy="-42" rx="64.99" ry="18"/>
<text text-anchor="middle" x="601" y="-38.3" font-family="Times,serif" font-size="14.00">qrz&#45;logbook</text>
</a>
</g>
</g>
<!-- func&#45;&gt;qrzlogbook -->
<g id="edge3" class="edge">
<title>func&#45;&gt;qrzlogbook</title>
<path fill="none" stroke="black" d="M605.52,-95.7C604.86,-87.98 604.06,-78.71 603.32,-70.11"/>
<polygon fill="black" stroke="black" points="606.81,-69.77 602.47,-60.1 599.83,-70.37 606.81,-69.77"/>
</g>
<!-- lotwapi -->
<g id="node7" class="node">
<title>lotwapi</title>
<g id="a_node7"><a xlink:href="https://github.com/k0swe/lotw-api" xlink:title="lotw&#45;api">
<ellipse fill="#00add8" stroke="black" cx="732" cy="-42" rx="48.19" ry="18"/>
<text text-anchor="middle" x="732" y="-38.3" font-family="Times,serif" font-size="14.00">lotw&#45;api</text>
</a>
</g>
</g>
<!-- func&#45;&gt;lotwapi -->
<g id="edge4" class="edge">
<title>func&#45;&gt;lotwapi</title>
<path fill="none" stroke="black" d="M648.51,-99.34C657.47,-95.79 666.73,-91.64 675,-87 685.79,-80.94 696.76,-72.99 706.16,-65.52"/>
<polygon fill="black" stroke="black" points="708.44,-68.17 713.97,-59.13 704.01,-62.75 708.44,-68.17"/>
</g>
<!-- func&#45;&gt;adifjson -->
<g id="edge8" class="edge">
<title>func&#45;&gt;adifjson</title>
<path fill="none" stroke="black" stroke-dasharray="5,2" d="M562.38,-99.86C549.88,-95.95 536.34,-91.51 524,-87 500.42,-78.39 474.4,-67.49 454.15,-58.7"/>
</g>
</g>
</svg>
